Patient4_TMGait_0pt8_01_left_49_EMG.mot
version=1
nRows=29
nColumns=33
inDegrees=no
endheader
time	1LAddLong	2LGlutMax	3LGlutMed	4LIliopsoas	5LSemiMemb	6LBicFemLong	7LRecFem	8LVastMed	9LVastLat	10LGasMed	11LTibAnt	12lTibPost	13LPeroneusLong	14LSol	15LExtDigLong	16LFlexDigLong	17RAddLong	18RGlutMax	19RGlutMed	20RIliopsoas	21RSemiMemb	22RBicFemLong	23RRecFem	24RVastMed	25RVastLat	26RGasMed	27RTibAnt	28RTibPost	29RPeroneusLong	30RSol	31RExtDigLong	32RFlexDigLong
55.783	0.017395	-0.059509	-0.057526	0.018921	0.054779	-0.018768	-0.020294	-0.00824	0.14664	-0.11688	0.020294	-0.006561	0.004425	-0.041199	0.010223	-0.001831	0.072327	-0.71533	0.51758	-0.084686	0.048523	-0.17654	-0.92529	-0.28305	-0.27603	-0.006104	-0.52002	-0.016327	0.071259	-0.007782	-0.002441	0.000153
55.784	0.02243	-0.07431	-0.067291	0.001831	0.061035	0.010681	-0.010834	0.008087	0.13641	-0.12848	0.033875	-0.00824	0.035095	-0.003662	0.014648	-0.002899	0.004425	-0.74936	0.54596	0.016632	-0.3006	-0.14938	-0.86624	0.14526	0.09079	-0.007324	-0.37415	-0.021667	0.11917	0.001526	-0.000305	0.001526
55.785	0.034027	-0.022736	-0.041656	0.00473	-0.0177	0.017548	-0.033722	0.010986	0.13229	-0.1236	0.053253	-0.015717	0.030975	-0.023956	0.004272	-0.005493	-0.056152	-0.72052	-0.18143	0.095978	-0.28503	-0.076447	-0.47516	0.26718	0.28824	-0.014648	-0.2832	-0.017853	0.13947	-0.025482	-0.002289	0
55.786	0.037689	-0.047302	-0.055084	0.003815	-0.056915	0.02594	-0.037537	0.008392	0.11139	-0.070038	0.068207	-0.011444	0.045013	-0.10834	0.004272	-0.001526	-0.061493	-0.64301	-0.49805	0.15152	-0.16708	0.10101	-0.54688	-0.050201	0.28961	-0.000763	-0.082092	-0.01236	0.14557	0.036926	-0.000763	-0.010529
55.787	0.032654	-0.021515	-0.042572	-0.000153	0.031281	0.007477	-0.028381	-0.005188	0.12451	-0.024719	-0.014496	-0.009613	0.12711	-0.097198	0.018463	-0.010376	-0.052795	-0.69626	-0.054779	0.02655	0.11887	0.15228	-0.52155	-0.010529	0.31235	-0.009003	0.15274	-0.014954	0.019073	0.21408	-0.001831	-0.011292
55.788	0.028687	-0.001678	-0.054169	0.00412	0.050354	0.039825	-0.022583	0.005035	0.121	0.015411	-0.032349	-0.011902	0.13168	-0.056915	0.048828	0.005951	-0.018005	-0.64499	0.74005	-0.18494	0.082397	0.041504	-0.41122	0.061646	0.29221	-0.011597	-0.064087	-0.022278	-0.067902	0.24246	-0.002441	-0.011139
55.789	0.009613	0.014801	-0.11826	0.015106	0.025482	0.03067	-0.0177	-0.003815	0.11627	0.009003	-0.024414	-0.003052	0.11063	-0.026703	0.046692	-0.004578	0.022278	-0.67505	0.15793	-0.23514	-0.046387	-0.029907	-0.20767	0.005341	0.15579	-0.022583	-0.090942	-0.019989	-0.12024	0.097656	-0.003357	-0.010529
55.79	0.023499	0.034943	-0.19119	0.012054	0.00885	0.030975	-0.02533	0.012207	0.12039	0.022736	-0.023041	-0.008392	0.11902	-0.035553	0.016479	-0.007172	-0.016174	-0.69733	-0.041046	-0.2243	-0.12146	-0.010529	-0.27634	0.008545	0.06424	-0.027771	-0.015106	-0.015106	-0.077057	-0.13443	-0.001373	-0.01297
55.791	0.013123	0.065765	-0.15228	0.003357	0.004883	0.020599	-0.02243	0.004578	0.11475	0.009918	-0.017548	-0.015106	0.11536	-0.050507	-0.033264	-0.004272	-0.027161	-0.61371	0.3447	-0.12573	-0.032959	0.032043	-0.28229	0.22659	0.041351	-0.024414	0.022583	-0.015717	-0.009918	-0.31174	-0.000458	-0.017548
55.792	0.015259	0.084991	0.033112	-0.043945	0.013123	0.024261	-0.029907	0.002747	0.10391	-0.040894	-0.007019	-0.006561	0.12314	-0.068817	-0.070496	-0.00473	-0.01358	-0.47272	0.19562	-0.000763	0.10773	0.097961	-0.2092	0.1944	0.009766	-0.028381	0.064545	-0.021057	0.011292	-0.29404	-0.001984	-0.018463
55.793	0.018768	0.13001	0.11581	-0.019989	0.016785	0.02594	-0.028839	0.014648	0.091248	-0.024109	0.000763	-0.007629	0.099182	-0.059204	-0.035706	-0.01236	0.028076	-0.50461	0.34378	0.10437	0.18417	0.072479	-0.19302	0.091858	0.029449	-0.007629	0.18219	-0.035706	-0.02655	-0.34561	-0.001068	-0.01236
55.794	0.014954	0.11505	0.053406	-0.005798	0.00946	0.047302	-0.019073	0.010071	0.071564	-0.050201	-0.000153	-0.01358	0.1033	-0.047455	0.023193	-0.017242	-0.003967	-0.46707	0.72266	0.20615	0.10162	0.010986	-0.13229	0.15305	0.060272	-0.004425	0.21027	-0.057068	-0.000458	-0.22156	-0.002441	-0.009766
55.795	0.011292	0.059357	0.043335	-0.007477	0.013123	0.046234	-0.023041	0.005798	0.076447	-0.035706	0.003815	-0.01236	0.080719	-0.029144	0.01358	-0.005798	-0.007629	-0.54169	0.14175	0.23911	-0.22476	-0.063477	-0.075836	0.22797	0.053711	0.006104	0.17349	-0.065613	-0.14572	0.061493	0.000305	-0.009613
55.796	0.017242	0.071564	0.011597	0.002747	0.037994	0.022736	-0.023956	0.011139	0.086975	-0.043335	0.011749	-0.014648	0.079498	-0.054016	-0.032806	-0.017548	-0.02182	-0.52368	-0.29282	0.057068	-0.039673	-0.13229	-0.095978	0.14236	0.072021	0.015259	0.18021	0.051117	-0.31693	0.14343	-0.002899	-0.007629
55.797	0.015411	0.09903	0.028992	0.004272	0.022583	0.014496	-0.035858	0.007629	0.076752	-0.038452	0.012665	-0.01297	0.069885	-0.025024	-0.035248	-0.023651	-0.006714	-0.48187	-0.19882	-0.00824	-0.032196	-0.18387	-0.16113	0.11169	0.093231	0.039673	0.21103	-0.009918	-0.23499	0.21225	-0.00351	-0.007172
55.798	0.010986	0.10391	0.014038	0.012512	-0.000153	0.027313	-0.024414	0.007172	0.077515	-0.067902	0.009766	-0.014496	0.067596	-0.081329	-0.030975	-0.026398	0.020599	-0.44815	0.066681	-0.01709	-0.16449	-0.007629	-0.096588	0.015869	0.06546	0.037994	0.22018	-0.11627	-0.22263	0.30014	-0.002899	-0.009918
55.799	0.013733	0.1387	-0.00824	0.00824	-0.011292	0.048065	-0.048218	0.005035	0.078278	-0.05249	0.009308	-0.013428	0.066986	-0.085754	-0.017395	-0.013885	0.022583	-0.41031	-0.06012	-0.003662	0.13855	0.031586	-0.062561	0.001068	-0.014801	-0.002289	0.2478	-0.05188	-0.13718	0.4422	-0.005951	-0.007629
55.8	-0.000458	0.15884	-0.041809	0.001678	-0.027618	0.064392	-0.039978	0.006256	0.072021	-0.061035	-0.005035	-0.00412	0.061951	-0.081177	0	-0.019531	0.019531	-0.32486	0.002136	-0.010986	0.36087	0.013275	-0.10727	-0.046844	-0.040131	-0.008392	0.092468	-0.017395	0.31632	0.7695	-0.007019	-0.003052
55.801	0.010834	0.19684	-0.056763	-0.008392	-0.009918	0.050049	-0.049591	0.017242	0.072174	-0.057831	0.005493	-0.018463	0.059814	-0.061035	0.002441	-0.008698	-0.025177	-0.28534	-0.084686	0.031281	0.19455	0.017853	-0.094757	-0.067596	-0.065765	0.01297	-0.12222	-0.15961	0.46341	0.17151	-0.001373	-0.009613
55.802	0.009613	0.16251	-0.062561	0.020447	-0.031128	0.015411	-0.019684	0.005188	0.071869	-0.051117	0.00946	-0.009003	-0.010223	-0.062103	0.006866	-0.01297	-0.010834	-0.28763	-0.2124	0.000763	-0.082397	0.092926	-0.088501	-0.12497	-0.044708	-0.040283	-0.18539	-0.55191	0.46585	0.11002	-0.001526	-0.010529
55.803	0.01709	0.1207	-0.059052	0.022888	-0.077972	-0.016327	-0.046692	0.005798	0.061188	-0.05661	0.012665	-0.016022	0.008698	-0.10391	-0.006714	-0.012817	-0.009155	-0.24292	-0.10544	0.010986	-0.076752	0.072479	-0.033875	-0.070496	-0.010834	-0.036469	-0.1181	0.48218	0.35996	0.21118	0.00061	-0.012207
55.804	0.028381	0.13794	-0.067444	0.008545	-0.11704	-0.049133	-0.034637	0.000153	0.06958	-0.080566	0.016022	-0.005188	-0.007935	-0.079651	-0.00412	-0.015259	0.018616	-0.23514	-0.17792	0.078583	0.071869	0.067139	-0.00946	-0.088654	0.025635	-0.040588	-0.030365	0.28595	-0.009613	-0.069427	-0.000305	-0.012665
55.805	0.040131	0.11551	-0.058594	-0.00824	-0.11826	-0.095673	-0.037384	0.001526	0.063934	-0.087585	0.028229	0.003967	-0.014038	-0.076752	0.003204	-0.014191	0.013885	-0.25146	-0.242	0.13229	0.070343	0.053558	-0.10757	-0.070343	0.055542	-0.041809	0.019836	0.25772	-0.12009	-0.065765	0.002289	-0.009003
55.806	0.031281	0.095367	-0.13016	0.014191	0.041809	-0.056915	-0.036774	0.008698	0.053711	-0.056	0.023193	-0.00473	-0.04364	-0.053101	-0.000305	-0.00946	-0.011902	-0.19806	-0.23224	0.0737	-0.076294	0.051575	-0.15259	-0.026093	0.066528	-0.04364	0.036316	0.10361	-0.27985	0.4657	-0.002136	-0.00824
55.807	0.033569	0.082855	-0.098419	0.008698	0.15289	0.026855	-0.026703	0.00824	0.037384	-0.00885	0.010071	-0.005646	0.006561	-0.065918	0.012054	-0.010376	-0.004425	-0.18875	0.010529	0.072632	-0.12802	0.055084	-0.062714	-0.082245	-0.01297	-0.028076	0.010834	0.085907	-0.32333	0.48782	-0.003052	-0.019226
55.808	0.015869	0.078125	-0.10178	0.014648	0.050507	0.12314	-0.027618	0.00946	0.053711	0.007324	-0.010376	-0.001068	0.10315	-0.064087	0.007782	-0.010223	0.004272	-0.17303	0.47943	0.06424	0.024872	0.013428	-0.023346	-0.18234	-0.059662	-0.005798	-0.20279	0.094147	-0.13336	0.36377	-0.005188	-0.011444
55.809	0.010834	0.040436	-0.010986	0.018463	0.053253	0.10986	-0.031433	0.01236	0.050659	-0.014801	-0.031891	-0.006256	0.11963	-0.097504	-0.005493	-0.005798	0.011139	-0.2652	0.12894	0.022125	0.026093	-0.002594	0.070648	-0.16541	0.016174	-0.010071	-0.31921	-0.37689	0.025177	0.26245	-0.002747	-0.000458
55.81	0.007019	0.04837	0.034332	0.004272	0.032043	0.041199	-0.04303	0.005646	0.056305	-0.00412	-0.03067	0.003204	0.059357	-0.078125	-0.019989	-0.005951	0.014801	-0.24292	-0.45487	0.042267	0.014496	-0.018463	0.1828	-0.15732	0.047455	-0.010376	-0.25986	-0.13962	0.008087	-0.17288	0.000916	-0.01358
55.811	0.015106	0.033417	-0.058594	-0.002136	0.011902	0.016785	-0.051422	0.019073	0.044861	0.001678	0.005951	0.002747	0.048981	-0.062103	0.006714	-0.00824	0.004578	-0.17227	-0.9404	0.023499	0.010223	0.006714	0.07782	-0.16586	-0.018158	-0.021362	0.032043	0.26733	-0.10437	-0.50384	-0.00061	-0.005798
